<svg version="1.1" xmlns="http://www.w3.org/2000/svg" xmlns:xlink="http://www.w3.org/1999/xlink" width="1716.21622" height="1147.14715" viewBox="0,0,1716.21622,1147.14715"><defs><linearGradient x1="575.32582" y1="-168.97898" x2="575.32582" y2="870.06006" gradientUnits="userSpaceOnUse" id="color-1"><stop offset="0" stop-color="#6100ff"/><stop offset="1" stop-color="#00ceff"/></linearGradient></defs><g transform="translate(275.27477,277.08709)"><g stroke-miterlimit="10"><path d="M-242.74625,870.06006c-2.20914,0 -4,-1.79086 -4,-4v-1031.03904c0,-2.20914 1.79086,-4 4,-4h1636.14414c2.20914,0 4,1.79086 4,4v1031.03904c0,2.20914 -1.79086,4 -4,4z" fill="url(#color-1)" stroke="none" stroke-width="0"/><path d="M-271.27477,770.96096c-2.20914,0 -4,-1.79086 -4,-4v-1040.04805c0,-2.20914 1.79086,-4 4,-4h1708.21622c2.20914,0 4,1.79086 4,4v1040.04805c0,2.20914 -1.79086,4 -4,4z" fill-opacity="0.45098" fill="#000000" stroke="none" stroke-width="0"/><path d="M258.96871,375.00001c-2.19185,0 -3.96869,-1.34979 -3.96869,-3.01484v-247.97033c0,-1.66504 1.77684,-3.01484 3.96869,-3.01484h499.06262c2.19185,0 3.96869,1.34979 3.96869,3.01484v247.97033c0,1.66504 -1.77684,3.01484 -3.96869,3.01484z" fill="#000000" stroke="#ffffff" stroke-width="2"/><text transform="translate(368.00001,106.00001) scale(0.5,0.5)" font-size="40" xml:space="preserve" fill="#ffffff" stroke="none" stroke-width="1" font-family="&quot;5by7_b&quot;, Sans Serif" font-weight="normal" text-anchor="start"><tspan x="0" dy="0">PengLizer (Experimental)</tspan></text><text transform="translate(850.00002,81.00001) scale(0.5,0.5)" font-size="40" xml:space="preserve" fill="#ffffff" stroke="none" stroke-width="1" font-family="&quot;5by7_b&quot;, Sans Serif" font-weight="normal" text-anchor="start"><tspan x="0" dy="0">Theme:Galaxy</tspan></text></g></g></svg>