<svg version="1.1" xmlns="http://www.w3.org/2000/svg" xmlns:xlink="http://www.w3.org/1999/xlink" width="1453.95195" height="932.93093" viewBox="0,0,1453.95195,932.93093"><defs><linearGradient x1="557.30781" y1="-173.48348" x2="557.30781" y2="757.44745" gradientUnits="userSpaceOnUse" id="color-1"><stop offset="0" stop-color="#000000"/><stop offset="1" stop-color="#ff7c00"/></linearGradient></defs><g transform="translate(169.66817,174.48348)"><g stroke-miterlimit="10"><path d="M-164.66817,757.44745c-2.20914,0 -4,-1.79086 -4,-4v-922.93093c0,-2.20914 1.79086,-4 4,-4h1443.95195c2.20914,0 4,1.79086 4,4v922.93093c0,2.20914 -1.79086,4 -4,4z" fill="url(#color-1)" stroke="#000000" stroke-width="2" stroke-linecap="butt"/><path d="M258.96869,375c-2.19185,0 -3.96869,-1.34979 -3.96869,-3.01484v-247.97033c0,-1.66504 1.77684,-3.01484 3.96869,-3.01484h499.06262c2.19185,0 3.96869,1.34979 3.96869,3.01484v247.97033c0,1.66504 -1.77684,3.01484 -3.96869,3.01484z" fill="#000000" stroke="#ffffff" stroke-width="2" stroke-linecap="butt"/><text transform="translate(368,106) scale(0.5,0.5)" font-size="40" xml:space="preserve" fill="#ffffff" stroke="none" stroke-width="1" stroke-linecap="butt" font-family="&quot;5by7_b&quot;, Sans Serif" font-weight="normal" text-anchor="start"><tspan x="0" dy="0">PengLizer (Experimental)</tspan></text><text transform="translate(844,82) scale(0.5,0.5)" font-size="40" xml:space="preserve" fill="#ffffff" stroke="none" stroke-width="1" stroke-linecap="butt" font-family="&quot;5by7_b&quot;, Sans Serif" font-weight="normal" text-anchor="start"><tspan x="0" dy="0">Theme:Scratch </tspan></text><path d="M970,71c-1.29195,-3.87585 -2.22703,-7.578 -2.93051,-11.60248" fill="none" stroke="none" stroke-width="0.5" stroke-linecap="round"/></g></g></svg>