<svg version="1.1" xmlns="http://www.w3.org/2000/svg" xmlns:xlink="http://www.w3.org/1999/xlink" width="155.23478" height="388.07206" viewBox="0,0,155.23478,388.07206"><g transform="translate(-127.46052,-325.63715)"><g stroke-miterlimit="10"><path d="M132.44064,712.70921c-2.19816,0 -3.98012,-1.78196 -3.98012,-3.98012v-378.11182c0,-2.19816 1.78196,-3.98012 3.98012,-3.98012h145.27454c2.19816,0 3.98012,1.78196 3.98012,3.98012v378.11182c0,2.19816 -1.78196,3.98012 -3.98012,3.98012z" fill="#7d7d7d" stroke="#000000" stroke-width="2"/><path d="M166.47581,419.17503c-4.50905,0 -8.16436,-2.18055 -8.16436,-4.87041v-82.79707c0,-2.68986 3.65531,-4.87041 8.16436,-4.87041h63.27377c4.50905,0 8.16436,2.18055 8.16436,4.87041v82.79707c0,2.68986 -3.65531,4.87041 -8.16436,4.87041z" fill="#000000" stroke="none" stroke-width="0"/><text transform="translate(155.1873,542.65549) scale(3.06233,3.06233)" font-size="40" xml:space="preserve" fill="#000000" stroke="none" stroke-width="1" font-family="Archivo Black" font-weight="normal" text-anchor="start"><tspan x="0" dy="0">T</tspan></text></g></g></svg>