<svg version="1.1" xmlns="http://www.w3.org/2000/svg" xmlns:xlink="http://www.w3.org/1999/xlink" width="2085.58559" height="1489.48949" viewBox="0,0,2085.58559,1489.48949"><g transform="translate(536.53604,243.01802)"><g stroke-miterlimit="10"><path d="M-532.53604,1246.47147c-2.20914,0 -4,-1.79086 -4,-4v-1481.48949c0,-2.20914 1.79086,-4 4,-4h2077.58559c2.20914,0 4,1.79086 4,4v1481.48949c0,2.20914 -1.79086,4 -4,4z" fill="#ffffff" stroke="none" stroke-width="0"/><path d="M258.96871,375.00001c-2.19185,0 -3.96869,-1.34979 -3.96869,-3.01484v-247.97033c0,-1.66504 1.77684,-3.01484 3.96869,-3.01484h499.06262c2.19185,0 3.96869,1.34979 3.96869,3.01484v247.97033c0,1.66504 -1.77684,3.01484 -3.96869,3.01484z" fill="#000000" stroke="#ffffff" stroke-width="2"/><text transform="translate(368.00001,106.00001) scale(0.5,0.5)" font-size="40" xml:space="preserve" fill="#000000" stroke="none" stroke-width="1" font-family="&quot;5by7_b&quot;, Sans Serif" font-weight="normal" text-anchor="start"><tspan x="0" dy="0">PengLizer (Experimental)</tspan></text><text transform="translate(850.00002,81.00001) scale(0.5,0.5)" font-size="40" xml:space="preserve" fill="#000000" stroke="none" stroke-width="1" font-family="&quot;5by7_b&quot;, Sans Serif" font-weight="normal" text-anchor="start"><tspan x="0" dy="0">Theme:Boring</tspan></text></g></g></svg>