<svg version="1.1" xmlns="http://www.w3.org/2000/svg" xmlns:xlink="http://www.w3.org/1999/xlink" width="48.83333" height="43.89421" viewBox="0,0,48.83333,43.89421"><defs><linearGradient x1="388.16667" y1="307" x2="388.16667" y2="349.39421" gradientUnits="userSpaceOnUse" id="color-1"><stop offset="0" stop-color="#00cfff"/><stop offset="1" stop-color="#0016ff"/></linearGradient></defs><g transform="translate(-363.75,-306.25)"><g stroke-miterlimit="10"><path d="M369.43913,349.39421c-2.7278,0 -4.93913,-2.21133 -4.93913,-4.93914v-32.51594c0,-2.7278 2.21132,-4.93913 4.93913,-4.93913h37.45508c2.7278,0 4.93913,2.21132 4.93913,4.93913v32.51594c0,2.7278 -2.21132,4.93914 -4.93913,4.93914z" fill="url(#color-1)" stroke="#ffffff" stroke-width="1.5"/><path d="M369.76315,337.69788c-1.6744,-1.97038 -2.08227,-7.25835 0.36206,-8.83441c1.25635,-0.81007 2.81748,-0.51112 4.17684,-0.29172c-0.22404,-6.23371 -0.07283,-13.26582 3.14249,-14.96499c3.1615,-1.67073 10.98302,0.95791 14.50467,1.23135c1.80181,-0.00074 13.37041,-0.13659 14.02153,0.65854c0.97302,1.18822 -4.79115,25.37092 -6.38639,26.46944c-2.60498,1.79386 -5.32553,-0.88347 -6.75607,-2.52599c-0.34763,-3.37881 -0.03275,-8.26217 5.00872,-6.83527c0.69089,0.19554 1.1221,0.88842 1.66673,1.36407c1.48299,-5.46319 2.48682,-13.92782 3.8811,-16.1117c-0.11656,0.11671 -0.24842,0.22286 -0.34615,0.23694c-1.03329,0.14894 -2.08793,0.00006 -3.1319,0c-2.69656,-0.00015 -5.38229,-0.12535 -8.07776,-0.12643c-3.38516,-0.25811 -9.9337,-2.57389 -13.05606,-1.52473c-2.01916,0.67847 -0.88445,18.2744 -1.10728,21.25168c0,0 -0.11699,1.52088 -1.62109,1.44508c-2.17613,0.15308 -4.64741,0.481 -6.28143,-1.44187z" fill="#000000" stroke="none" stroke-width="0.5"/></g></g></svg>