<svg version="1.1" xmlns="http://www.w3.org/2000/svg" xmlns:xlink="http://www.w3.org/1999/xlink" width="156" height="390" viewBox="0,0,156,390"><defs><linearGradient x1="204.83938" y1="316.01601" x2="204.83938" y2="704.01601" gradientUnits="userSpaceOnUse" id="color-1"><stop offset="0" stop-color="#ffffff"/><stop offset="1" stop-color="#f1a9ff"/></linearGradient></defs><g transform="translate(-126.83938,-315.01601)"><g stroke-miterlimit="10"><path d="M131.83938,704.01601c-2.20914,0 -4,-1.79086 -4,-4v-380c0,-2.20914 1.79086,-4 4,-4h146c2.20914,0 4,1.79086 4,4v380c0,2.20914 -1.79086,4 -4,4z" fill="url(#color-1)" stroke="#000000" stroke-width="2"/><text transform="translate(155.1873,532.65549) scale(3.06233,3.06233)" font-size="40" xml:space="preserve" fill="#000000" stroke="none" stroke-width="1" font-family="Archivo Black" font-weight="normal" text-anchor="start"><tspan x="0" dy="0">E</tspan></text><path d="M166.04451,409.01601c-4.53157,0 -8.20513,-2.19144 -8.20513,-4.89473v-83.21053c0,-2.70329 3.67356,-4.89473 8.20513,-4.89473h63.58974c4.53157,0 8.20513,2.19144 8.20513,4.89473v83.21053c0,2.70329 -3.67356,4.89473 -8.20513,4.89473z" fill="#000000" stroke="none" stroke-width="0"/></g></g></svg>