<svg version="1.1" xmlns="http://www.w3.org/2000/svg" xmlns:xlink="http://www.w3.org/1999/xlink" width="48.635" height="40.42592" viewBox="0,0,48.635,40.42592"><defs><linearGradient x1="245.78723" y1="145.25" x2="245.78723" y2="183.17593" gradientUnits="userSpaceOnUse" id="color-1"><stop offset="0" stop-color="#ff51bb"/><stop offset="1" stop-color="#f852ff"/></linearGradient></defs><g transform="translate(-222.75,-144.00001)"><g stroke-width="2.5" stroke-miterlimit="10"><path d="M225.07591,183.17593c-0.59421,0 -1.07591,-0.48171 -1.07591,-1.07591v-35.7741c0,-0.59421 0.48171,-1.07591 1.07591,-1.07591h41.42264c0.59421,0 1.07591,0.48171 1.07591,1.07591v35.7741c0,0.59421 -0.48171,1.07591 -1.07591,1.07591z" fill="url(#color-1)" stroke="#ffffff" stroke-linecap="butt"/><path d="M239.9,156.3l9.2,-0.2" fill="none" stroke="#000000" stroke-linecap="round"/><path d="M240.3,162.9l9.2,-0.2" fill="none" stroke="#000000" stroke-linecap="round"/><path d="M249.7,167.92709l-9.2,0.14583" fill="none" stroke="#000000" stroke-linecap="round"/><path d="M249.9,173.72709l-9.2,0.14583" fill="none" stroke="#000000" stroke-linecap="round"/><path d="M269.54963,159.89787l-6.14572,4.63345l4.2233,4.74375l-15.63034,-1.42884l1.55268,-14.38367l4.2233,4.74375l6.14572,-4.63345z" fill="#000000" stroke="#000000" stroke-linecap="butt"/></g></g></svg>