<svg version="1.1" xmlns="http://www.w3.org/2000/svg" xmlns:xlink="http://www.w3.org/1999/xlink" width="1475" height="1088" viewBox="0,0,1475,1088"><g transform="translate(166.5,337)"><g stroke="none" stroke-miterlimit="10"><path d="M-162.5,751c-2.20914,0 -4,-1.79086 -4,-4v-1080c0,-2.20914 1.79086,-4 4,-4h1467c2.20914,0 4,1.79086 4,4v1080c0,2.20914 -1.79086,4 -4,4z" fill="#000000" stroke-width="0"/><text transform="translate(94.5,13) scale(0.5,0.5)" font-size="40" xml:space="preserve" fill="#4cc9ff" stroke-width="1" font-family="&quot;vcr&quot;, Sans Serif" font-weight="normal" text-anchor="start"><tspan x="0" dy="0"> </tspan></text><g fill="#ffffff" stroke-width="0.5"><path d="M611.51537,208.44395c4.49462,-5.66768 3.9503,-13.67934 3.20486,-20.34226c-1.49919,-13.40023 -6.41572,-23.18727 -15.68797,-32.60162c-42.24586,-23.14134 -87.02831,-16.16479 -121.94993,12.69865c19.13064,4.64761 58.37151,24.52413 69.00998,29.36021c12.59795,5.40449 25.61962,11.21742 37.46598,18.0243c2.93654,1.68733 6.67709,3.50276 9.23543,6.20578c6.16473,-3.78847 14.22699,-7.67732 18.72165,-13.34505zM459.82026,169.51399c39.91278,-39.86575 95.05373,-50.91881 145.63476,-22.52877c11.54826,11.41635 18.04577,23.46567 19.86396,39.9243c1.05649,9.56354 0.93043,19.99652 -5.32761,28.00838c-5.46378,6.99502 -14.60145,11.56929 -22.03175,16.21703l-2.76717,1.00272c-0.69375,3.11361 -2.03298,6.27604 -2.93188,8.54985c-5.46345,13.81993 -11.85784,26.32873 -25.05618,33.92874l0.41402,-0.14826c0,0 -1.83445,1.83444 -4.22385,1.66485c16.10059,27.88995 17.2083,64.45146 17.1521,97.28522c-0.11605,0.94143 -0.23211,1.88286 -0.34817,2.82429c0.06933,0.06366 0.14241,0.13335 0.21792,0.20891c3.08116,1.88338 2.11444,5.75025 2.11444,5.75025l-0.71103,2.84416c-1.93417,7.73405 -2.42243,15.6704 -4.23912,23.35054c-1.99955,8.45319 -6.53157,15.61165 -10.38155,23.23967c-2.04995,4.06158 -4.36319,8.28774 -7.93604,11.10438c-7.06642,5.57077 -16.05973,7.19815 -24.69026,8.17255c-36.04004,3.96024 -90.72967,5.53061 -119.31343,-20.57601c-4.70347,0.17361 -5.31053,-4.68283 -5.31053,-4.68283c-2.60526,-21.13378 2.62904,-50.31069 -5.86262,-70.06187c-2.83123,-6.5853 -21.01316,-4.15166 -27.52321,-9.74724c-5.02609,-1.13204 -20.12505,2.31429 -23.25007,-0.2869c-10.41202,-8.66673 -0.50567,-32.80875 7.03699,-40.30922c6.2789,-6.24379 14.45537,-4.53396 21.35478,-7.72549c0.34298,-0.15866 -0.12917,-0.81444 -0.42331,-1.05171c-4.54325,-3.66482 -9.6363,-6.60876 -14.19444,-10.25504c-11.33791,-9.06978 -28.01635,-17.53713 -8.07007,-28.91659c16.65956,-6.66382 38.9473,-9.2291 51.42054,-14.90213c2.00121,-0.91019 -0.44988,-4.47842 -1.45756,-6.43237c-5.55102,-10.76386 -27.56576,-62.09535 0.56262,-55.48466c3.4595,0.81305 11.8272,7.68644 15.4169,9.48404c3.55668,2.23028 7.13399,4.43253 10.72925,6.60915c0.56963,-1.52815 1.73522,-2.49948 1.73522,-2.49948c5.40156,-4.50109 13.20149,-13.87151 20.73502,-20.29033c-0.19684,-2.41195 1.66133,-4.27011 1.66133,-4.27011zM560.0767,266.92628l1.83609,-1.57035c9.55708,-5.41184 14.11371,-13.84168 18.36431,-23.77896c0.92887,-2.17154 5.7114,-10.11071 4.83473,-12.52251c-0.82503,-2.26972 -9.48944,-5.95012 -11.44305,-6.85801c-10.59487,-4.92366 -21.10182,-10.26431 -31.88415,-14.88054c-7.39933,-3.36306 -66.64259,-30.82731 -70.29384,-29.62472c-7.99422,2.633 -19.69906,18.07434 -26.83829,24.23677c16.85017,9.93309 34.04105,19.35501 51.3045,28.50796c13.00405,6.89466 27.57597,9.43668 40.14226,17.25201c9.40077,5.9031 16.82211,13.12046 22.6787,21.2803c0.49421,-1.23743 1.29874,-2.04196 1.29874,-2.04196zM569.22152,378.11354c0.22672,-1.78608 0.45345,-3.57214 0.68017,-5.35822c-0.08008,-41.62623 -0.79274,-91.98662 -39.45517,-116.02301c-12.24998,-7.69888 -26.72861,-10.12868 -39.49406,-16.87784c-24.13782,-12.76178 -48.05902,-26.16339 -71.21016,-40.58724c-2.99531,-1.49529 -8.35012,-4.03096 -11.09861,-5.95921c-0.72403,-0.50796 -1.72309,-1.87907 -2.4864,-3.05071c3.44414,7.15268 1.46485,17.29194 3.5241,24.86383c2.45134,9.01363 13.06315,16.77203 12.29463,26.87713c-0.24972,3.28357 -2.32356,6.4507 -4.77668,8.64761c-0.7695,0.68914 -46.69139,13.53484 -53.81318,16.38356c-9.22485,3.27007 23.66058,15.77714 27.5082,24.82185c6.60147,15.51827 -23.22508,13.72646 -30.24183,37.15241c-0.74295,2.48039 -3.62712,6.11775 -1.51694,7.61824c2.29455,1.6316 5.32287,-2.11878 8.13395,-2.27657c4.7465,-0.26642 9.52487,0.78029 14.12245,1.98967c8.96193,7.27117 17.89359,1.79757 26.98126,8.22808c12.17373,8.61425 10.39292,56.10565 11.79518,75.90762c0.61316,0.38804 0.97602,0.7509 0.97602,0.7509c24.84688,25.22003 79.64631,22.75734 112.25058,19.09079c6.83297,-0.74555 13.68224,-1.82542 19.39413,-6.04822c3.91544,-2.89468 5.55355,-8.33216 7.77868,-12.49909c6.73331,-12.60921 7.49358,-25.65671 10.90484,-39.30626l0.19395,-0.7758z"/><path d="M438.34924,333.97957c0,-2.94521 2.38758,-5.33279 5.33279,-5.33279c2.94521,0 5.33279,2.38758 5.33279,5.33279c0,2.94521 -2.38758,5.33279 -5.33279,5.33279c-2.94521,0 -5.33279,-2.38758 -5.33279,-5.33279z"/><path d="M527.9401,331.13541c0,-2.94521 2.38758,-5.33279 5.33279,-5.33279c2.94521,0 5.33279,2.38758 5.33279,5.33279c0,2.94521 -2.38758,5.33279 -5.33279,5.33279c-2.94521,0 -5.33279,-2.38758 -5.33279,-5.33279z"/><path d="M507.31725,367.58025c2.66229,1.77486 0.88743,4.43715 0.88743,4.43715l-0.94683,0.98577c-1.80465,8.23689 -6.53211,12.5593 -14.45391,14.56547c-3.66066,0.92705 -9.50283,3.04023 -13.37237,1.27286c-2.45306,-1.1204 -4.83924,-3.33331 -5.67811,-5.70592c-10.88853,9.707 -27.14536,1.08559 -29.67238,-13.07805c0,0 -0.52603,-3.15614 2.63011,-3.68216c3.15614,-0.52603 3.68216,2.63011 3.68216,2.63011c1.32705,8.77545 13.56353,17.56625 20.29594,8.29505l1.27993,-3.19984c0.45375,-1.2152 1.62506,-2.08055 2.9985,-2.08055c1.60602,0 2.93569,1.18325 3.16479,2.72554l0.70239,4.21435l-0.10826,0.01804c1.08342,1.91286 2.23497,3.56882 3.15384,3.95121c2.43646,1.01396 7.2419,-1.04482 9.38087,-1.57129c5.3252,-1.31069 8.71262,-3.74131 9.72141,-9.60984l1.89733,-3.28047c0,0 1.77486,-2.66229 4.43715,-0.88743z"/></g><text transform="translate(195.4087,513.62711) scale(1.45341,1.45341)" font-size="40" xml:space="preserve" fill="#ffffff" stroke-width="1" font-family="&quot;vcr&quot;, Sans Serif" font-weight="normal" text-anchor="start"><tspan x="0" dy="0">JustaD3v Presents..</tspan></text></g></g></svg>