<svg version="1.1" xmlns="http://www.w3.org/2000/svg" xmlns:xlink="http://www.w3.org/1999/xlink" width="50" height="42.09677" viewBox="0,0,50,42.09677"><defs><linearGradient x1="215" y1="37" x2="215" y2="78.09677" gradientUnits="userSpaceOnUse" id="color-1"><stop offset="0" stop-color="#ff0000"/><stop offset="1" stop-color="#961f1f"/></linearGradient></defs><g transform="translate(-190,-36.5)"><g stroke-miterlimit="10"><path d="M193.66129,78.09677c-1.74593,0 -3.16129,-1.41536 -3.16129,-3.16129v-34.77419c0,-1.74593 1.41536,-3.16129 3.16129,-3.16129h42.67742c1.74593,0 3.16129,1.41536 3.16129,3.16129v34.77419c0,1.74593 -1.41536,3.16129 -3.16129,3.16129z" fill="url(#color-1)" stroke="#ffffff" stroke-width="1"/><path d="M205.83333,71.5c-2.20914,0 -4,-1.79086 -4,-4v-20c0,-2.20914 1.79086,-4 4,-4h18c2.20914,0 4,1.79086 4,4v20c0,2.20914 -1.79086,4 -4,4z" fill="none" stroke="#ffffff" stroke-width="3.5"/><path d="M216.20478,54.97039l8.6971,-0.21743l-0.14672,-5.86871l10.02571,9.53665l-9.53665,10.02571l-0.14672,-5.86871l-8.6971,0.21743z" fill="#ffffff" stroke="#000000" stroke-width="1"/></g></g></svg>