<svg version="1.1" xmlns="http://www.w3.org/2000/svg" xmlns:xlink="http://www.w3.org/1999/xlink" width="85.4946" height="154.35536" viewBox="0,0,85.4946,154.35536"><defs><linearGradient x1="512.53179" y1="233.07232" x2="512.53179" y2="386.92768" gradientUnits="userSpaceOnUse" id="color-1"><stop offset="0" stop-color="#3e5766"/><stop offset="1" stop-color="#172126"/></linearGradient><linearGradient x1="526.25243" y1="293.64433" x2="486.09246" y2="367.64923" gradientUnits="userSpaceOnUse" id="color-2"><stop offset="0" stop-color="#3e5766"/><stop offset="1" stop-color="#172126"/></linearGradient></defs><g transform="translate(-456.7527,-232.82232)"><g stroke-miterlimit="10"><path d="M494.51226,386.92768h-23.32957c0,0 4.64421,-5.14598 11.88395,-7.7708c0,0 6.94107,-3.29756 11.44562,7.7708" fill="#e3a066" fill-rule="nonzero" stroke="none" stroke-width="1"/><path d="M494.95059,386.92768h-23.76791c0,0 5.06488,-5.30331 12.30463,-7.92746" fill="none" fill-rule="evenodd" stroke="#8d6a4a" stroke-width="0.5"/><path d="M501.99683,386.92768h-23.32957c0,0 2.41886,-3.64772 9.65861,-6.27271c0,0 8.48241,0.98555 13.67096,6.27271" fill="#e3a066" fill-rule="nonzero" stroke="none" stroke-width="1"/><path d="M502.43517,386.92768h-23.76791c0,0 2.41886,-3.64772 9.65861,-6.27271" fill="none" fill-rule="evenodd" stroke="#8d6a4a" stroke-width="0.5"/><path d="M486.34451,238.88818c3.21224,-3.55299 10.91978,-5.81586 14.56531,-5.81586c3.64638,0 9.15212,1.75453 11.96556,5.39199c4.04938,5.23466 3.44193,15.76927 4.07294,18.35943c0.63101,2.59116 9.56942,24.38175 14.91615,35.86624c4.60551,9.88981 10.65728,31.21513 10.0961,53.35084c-0.56118,22.13571 -18.36902,40.88686 -18.78969,40.88686h-21.17405c-3.50587,-4.08943 -12.47962,-6.34204 -13.18046,-6.34456c-0.77151,-0.00522 -2.48953,-0.1363 -4.20755,0.07101c0,0 1.99819,-1.30442 2.55936,-3.27804c0,0 -1.82319,2.22064 -4.10154,2.50316c0,0 1.45216,-1.32394 1.85852,-2.78484c0.24483,-0.88156 2.76886,-46.84474 2.76886,-47.97248c0,-0.78497 -1.0929,-47.49611 -1.05168,-70.00739c3.01285,-1.3517 0.64867,-6.05682 0.64867,-6.05682c0,0 -6.73074,-7.77248 -0.94651,-14.16954" fill="url(#color-1)" fill-rule="nonzero" stroke="none" stroke-width="1"/><path d="M485.6642,260.33735c0,0 7.82448,7.73614 8.57243,20.14358c0.74879,12.4066 12.38792,68.38074 13.64993,74.16093c1.26201,5.78036 -6.6079,26.12097 -23.27741,26.01261c0,0 2.55936,-1.37458 2.55936,-3.27787c0,0 -2.79746,2.54287 -3.91981,2.47254c0,0 0.93978,-0.84925 1.60612,-2.48869c0,0 -1.19218,2.79999 -5.22389,0.82569c0,0 2.91357,-0.53223 3.05323,-2.29501c0,0 -1.86105,-0.1718 -3.26357,-0.1718c0,0 3.31152,-1.91271 2.45588,-3.40323c-6.24192,-10.87199 -8.06595,-24.58048 -9.99935,-45.94131c-2.09662,-23.15928 1.68941,-42.51099 7.57881,-55.55196c2.6822,-5.70161 6.20826,-10.48548 6.20826,-10.48548" fill="#fbf8ea" fill-rule="nonzero" stroke="none" stroke-width="1"/><path d="M493.95159,276.9658c0.00656,0.19031 -4.79582,-13.38878 -10.10368,-14.07649l2.79494,-3.7746c0,0 6.74739,2.19102 7.30874,17.85109" fill="#f0c579" fill-rule="nonzero" stroke="none" stroke-width="1"/><path d="M484.53848,378.58544c-3.78604,1.12757 -4.90738,-0.3993 -4.90738,-0.3993c2.26052,-0.70555 3.05323,-2.29501 3.05323,-2.29501c-1.17636,0.08784 -3.26357,-0.17264 -3.26357,-0.17264c3.38203,-1.69194 2.5634,-3.30681 2.09158,-4.34469c-0.70841,-1.56002 -6.99912,-9.26048 -9.80433,-47.18649c-3.42241,-46.29333 14.92221,-65.13737 16.12617,-66.40628c0.96754,-1.02021 0.21034,-2.67917 0.21034,-2.67917" fill="none" fill-rule="evenodd" stroke="#d1c1b5" stroke-width="0.5"/><path d="M486.344,238.88818c3.08537,-3.66539 10.92062,-5.81586 14.56632,-5.81586c3.64553,0 9.15111,1.75453 11.96556,5.39199c4.04854,5.23466 3.44193,15.76927 4.07294,18.35943c0.63101,2.59116 9.56841,24.38175 14.91615,35.86624c4.6045,9.88981 10.65627,31.21513 10.0961,53.35084c-0.56118,22.13571 -18.36986,40.88686 -18.79053,40.88686h-21.17338c-3.5057,-4.08943 -12.4803,-6.34204 -13.18114,-6.34456c-0.77067,-0.00522 -2.48869,-0.1363 -4.20671,0.07101c0,0 1.99819,-1.30442 2.55936,-3.27804c0,0 -1.82319,2.22064 -4.10154,2.50316c0,0 1.54218,-1.30189 1.85768,-2.78484" fill="none" fill-rule="evenodd" stroke="#2e374a" stroke-width="0.5"/><g><path d="M492.44424,252.31751c-4.73255,-0.68687 -2.71669,3.85907 -4.39938,2.78484c-1.68268,-1.07523 -2.54169,-2.78484 -13.84681,-3.36604c-14.72433,-1.48127 -17.19535,2.37881 -17.19535,2.37881c0,0 0.99867,-2.27314 2.9447,-4.33543c1.94518,-2.06162 6.5204,-3.48955 11.83179,-4.22976c5.31055,-0.74021 8.53373,-2.43282 10.83144,-3.59522c2.1471,-1.08533 3.24337,-3.52505 3.73388,-3.06652c0.73617,0.68687 -1.99819,3.48955 -1.57752,6.02737c0.55024,3.31859 7.84215,7.42568 7.67725,7.40196" fill="#e3a066" fill-rule="nonzero" stroke="none" stroke-width="1"/><path d="M488.6582,251.94732c0,0 -0.12452,-0.02356 -0.35084,-0.0456c-0.23053,-0.02288 -0.56791,-0.05587 -0.99699,-0.09726c-0.42908,-0.03803 -0.94988,-0.08464 -1.54723,-0.13714c-0.59904,-0.03803 -1.27295,-0.08969 -1.99735,-0.21824c-2.91357,-0.39762 -6.82244,-0.81459 -10.74057,-0.87887c-1.9578,-0.03382 -3.91561,0.01599 -5.73879,0.18022c-0.91117,0.08195 -1.78617,0.20041 -2.61237,0.33233c-0.82367,0.14555 -1.59434,0.31483 -2.29602,0.50346c-0.69242,0.22161 -1.33269,0.38904 -1.90143,0.55747c-0.55444,0.19788 -1.04495,0.37305 -1.42271,0.57093c-0.39291,0.1718 -0.67728,0.35101 -0.87668,0.46863c-0.20024,0.11762 -0.30709,0.18022 -0.30709,0.18022c0,0 0.09423,-0.08026 0.26923,-0.23255c0.17752,-0.14892 0.42572,-0.39089 0.79675,-0.62175c0.35505,-0.26065 0.82031,-0.51356 1.36129,-0.80634c0.27764,-0.12772 0.5738,-0.26469 0.88509,-0.40856c0.31719,-0.13361 0.67307,-0.20125 1.02896,-0.31971c0.72355,-0.19452 1.51526,-0.368 2.35744,-0.51776c0.84302,-0.13445 1.73485,-0.25543 2.66116,-0.33839c1.85095,-0.16659 3.83063,-0.2174 5.80694,-0.18274c3.95262,0.06529 7.88253,0.48478 10.81461,0.88408c0.36514,0.05923 0.72019,0.07959 1.05084,0.15144c0.32896,0.0769 0.64194,0.14976 0.93557,0.21824c0.58473,0.14555 1.09459,0.27159 1.51442,0.37558c0.83545,0.21824 1.30576,0.38231 1.30576,0.38231" fill="#8d6a4a" fill-rule="nonzero" stroke="none" stroke-width="1"/><path d="M488.04486,255.10235c-1.68268,-1.07523 -2.54169,-2.78484 -13.84681,-3.36604c-14.72433,-1.48127 -17.19535,2.37881 -17.19535,2.37881c0,0 0.99867,-2.27314 2.9447,-4.33543c1.94518,-2.06162 6.5204,-3.48955 11.83179,-4.22976c5.31055,-0.74021 8.53373,-2.43282 10.83144,-3.59522c2.1471,-1.08533 3.24337,-3.52505 3.73388,-3.06652c0.73617,0.68687 -1.99819,3.48955 -1.57752,6.02737c0.55024,3.31859 7.84215,7.42568 7.67725,7.40196c-4.73255,-0.68687 -2.71669,3.85907 -4.39938,2.78484z" fill="none" fill-rule="evenodd" stroke="#8d6a4a" stroke-width="0.5"/></g><g><path d="M498.22846,242.6759c0.11779,0.99733 -0.78834,2.53782 -3.99974,2.53782c-3.75996,0 -3.97871,-1.15634 -3.99301,-1.95662c-0.01178,-0.66079 0.49976,-2.32631 3.78604,-2.59032c2.47102,-0.10567 4.07546,0.89923 4.20671,2.00912" fill="#e2e3e4" fill-rule="nonzero" stroke="none" stroke-width="1"/><path d="M493.57483,245.1799c-0.20781,0.10567 -1.4641,-0.06933 -1.4641,-0.06933c0,0 -1.55985,-0.45937 -1.87535,-1.49069c-0.3155,-1.03115 0.92968,-1.97009 0.92968,-1.97009c0,0 0.46711,-0.49824 1.04831,-0.55074c0.58154,-0.05334 2.12439,0.27832 2.38706,1.78078c0.26233,1.50735 -1.0256,2.30006 -1.0256,2.30006" fill="#2e374a" fill-rule="nonzero" stroke="none" stroke-width="1"/><path d="M494.22872,245.28558c-3.75996,0 -3.97871,-1.15634 -3.99301,-1.95662c-0.01178,-0.66062 0.49976,-2.32631 3.78604,-2.59032c2.47102,-0.10567 4.07546,0.89923 4.20671,2.00912c0.11779,0.99733 -0.78834,2.53782 -3.99974,2.53782z" fill="none" fill-rule="evenodd" stroke="#2e374a" stroke-width="0.5"/></g><g><path d="M527.07926,294.09302c0,0 2.97549,4.18163 1.44703,10.50144c-1.18605,4.90703 -13.40312,40.59897 -13.40312,40.59897c0,0 -2.7468,6.5307 -5.7049,8.45384c-2.95796,1.92321 -8.091,6.67768 -10.46668,11.64462c-2.37641,4.96654 -2.8806,6.77762 -4.39327,6.91915c-1.51267,0.14154 -7.50476,-23.80324 -2.4374,-40.784c5.06721,-16.98085 14.47343,-34.49448 21.18495,-41.92095" fill="url(#color-2)" fill-rule="nonzero" stroke="none" stroke-width="1"/><path d="M527.07926,294.09302c0,0 2.97549,4.18163 1.44703,10.50144c-1.18605,4.90703 -13.40312,40.59897 -13.40312,40.59897c0,0 -2.7468,6.5307 -5.7049,8.45384c-2.95796,1.92321 -8.091,6.67768 -10.46668,11.64462c-2.37641,4.96654 -2.8806,6.77762 -4.39327,6.91915c-1.51267,0.14154 -7.50476,-23.80324 -2.4374,-40.784c5.06721,-16.98085 14.47343,-34.49448 21.18495,-41.92095" fill="none" fill-rule="evenodd" stroke="#2e374a" stroke-width="0.5"/></g></g></g></svg>