<svg version="1.1" xmlns="http://www.w3.org/2000/svg" xmlns:xlink="http://www.w3.org/1999/xlink" width="1263" height="1100" viewBox="0,0,1263,1100"><defs><linearGradient x1="590.003" y1="-78.04505" x2="590.003" y2="1021.95495" gradientUnits="userSpaceOnUse" id="color-1"><stop offset="0" stop-color="#122127"/><stop offset="1" stop-color="#004ccf"/></linearGradient></defs><g transform="translate(41.497,78.04505)"><g stroke-miterlimit="10"><path d="M-37.497,1021.95495c-2.20914,0 -4,-1.79086 -4,-4v-1092c0,-2.20914 1.79086,-4 4,-4h1255c2.20914,0 4,1.79086 4,4v1092c0,2.20914 -1.79086,4 -4,4z" fill="url(#color-1)" stroke="none" stroke-width="0"/><path d="M258.96869,375c-2.19185,0 -3.96869,-1.34979 -3.96869,-3.01484v-247.97033c0,-1.66504 1.77684,-3.01484 3.96869,-3.01484h499.06262c2.19185,0 3.96869,1.34979 3.96869,3.01484v247.97033c0,1.66504 -1.77684,3.01484 -3.96869,3.01484z" fill="#000000" stroke="#ffffff" stroke-width="2"/><text transform="translate(368,106) scale(0.5,0.5)" font-size="40" xml:space="preserve" fill="#ffffff" stroke="none" stroke-width="1" font-family="&quot;5by7_b&quot;, Sans Serif" font-weight="normal" text-anchor="start"><tspan x="0" dy="0">PengLizer (Experimental)</tspan></text><text transform="translate(850,81) scale(0.5,0.5)" font-size="40" xml:space="preserve" fill="#ffffff" stroke="none" stroke-width="1" font-family="&quot;5by7_b&quot;, Sans Serif" font-weight="normal" text-anchor="start"><tspan x="0" dy="0">Theme:penguin</tspan></text></g></g></svg>