<svg version="1.1" xmlns="http://www.w3.org/2000/svg" xmlns:xlink="http://www.w3.org/1999/xlink" width="1265" height="1102" viewBox="0,0,1265,1102"><defs><linearGradient x1="505.91291" y1="-161.33634" x2="505.91291" y2="938.66366" gradientUnits="userSpaceOnUse" id="color-1"><stop offset="0" stop-color="#181818"/><stop offset="1" stop-color="#0c0c0c"/></linearGradient></defs><g transform="translate(126.58709,162.33634)"><g stroke-miterlimit="10"><path d="M-121.58709,938.66366c-2.20914,0 -4,-1.79086 -4,-4v-1092c0,-2.20914 1.79086,-4 4,-4h1255c2.20914,0 4,1.79086 4,4v1092c0,2.20914 -1.79086,4 -4,4z" fill="url(#color-1)" stroke="#000000" stroke-width="2"/><path d="M258.96869,375c-2.19185,0 -3.96869,-1.34979 -3.96869,-3.01484v-247.97033c0,-1.66504 1.77684,-3.01484 3.96869,-3.01484h499.06262c2.19185,0 3.96869,1.34979 3.96869,3.01484v247.97033c0,1.66504 -1.77684,3.01484 -3.96869,3.01484z" fill="#000000" stroke="#ffffff" stroke-width="3"/><text transform="translate(368,106) scale(0.5,0.5)" font-size="40" xml:space="preserve" fill="#ffffff" stroke="none" stroke-width="1" font-family="&quot;5by7_b&quot;, Sans Serif" font-weight="normal" text-anchor="start"><tspan x="0" dy="0">PengLizer (Experimental)</tspan></text><text transform="translate(850,81) scale(0.5,0.5)" font-size="40" xml:space="preserve" fill="#ffffff" stroke="none" stroke-width="1" font-family="&quot;5by7_b&quot;, Sans Serif" font-weight="normal" text-anchor="start"><tspan x="0" dy="0">Theme:Dark</tspan></text></g></g></svg>