<svg version="1.1" xmlns="http://www.w3.org/2000/svg" xmlns:xlink="http://www.w3.org/1999/xlink" width="85.508" height="153.74778" viewBox="0,0,85.508,153.74778"><defs><linearGradient x1="499.63117" y1="233.37611" x2="499.63117" y2="373.23483" gradientUnits="userSpaceOnUse" id="color-1"><stop offset="0" stop-color="#3e5766"/><stop offset="1" stop-color="#172126"/></linearGradient></defs><g transform="translate(-456.746,-233.12611)"><g stroke-miterlimit="10"><path d="M525.74887,283.89121c0,0 11.47422,39.84938 15.22811,54.73056" fill="#3e5766" fill-rule="nonzero" stroke="#3e5766" stroke-width="1" stroke-linecap="round"/><path d="M458.27833,337.63351c3.75389,-14.88102 14.64393,-54.03306 14.64393,-54.03306" fill="#3e5766" fill-rule="nonzero" stroke="#3e5766" stroke-width="1" stroke-linecap="round"/><path d="M513.86179,246.07716c0.38984,2.11634 1.26179,10.75436 1.26179,10.75436c0,0 30.48902,64.07618 10.16207,116.2371c-0.22482,0.63553 -46.5301,-0.76807 -46.39043,-0.60124c-28.86075,-33.72318 3.82115,-115.52486 3.82115,-115.52486c0,0 0.74952,-8.57207 1.13935,-10.57311c0.33964,-7.48126 7.53743,-12.9933 15.39279,-12.9933c7.85536,0 14.80812,5.73007 14.61328,12.70105z" fill="url(#color-1)" fill-rule="nonzero" stroke="#2e374a" stroke-width="0.5" stroke-linecap="butt"/><path d="M490.68438,251.13326c6.01172,-3.73666 8.13353,-14.26304 8.13353,-14.26304c0,0 1.38306,8.88404 8.25133,14.26304c-5.89376,-0.14712 -8.20361,3.3006 -8.20361,3.3006c0,0 -3.70186,-3.82115 -8.18125,-3.3006z" fill="#e3a066" fill-rule="nonzero" stroke="#8d6a4a" stroke-width="0.5" stroke-linecap="butt"/><g stroke-linecap="butt"><path d="M486.59699,242.83455c0.09245,-1.0928 1.22136,-2.08222 2.95997,-1.97817c2.31234,0.25995 2.67235,1.89981 2.66407,2.55042c-0.01011,0.78795 -0.16402,1.92648 -2.80953,1.92648c-2.25965,0 -2.89734,-1.51676 -2.8145,-2.49873" fill="#e2e3e4" fill-rule="nonzero" stroke="none" stroke-width="1"/><path d="M489.06159,245.29997c0,0 -0.71522,-0.61582 -0.74554,-1.79377c-0.00381,-0.14811 0.00315,-0.30501 0.02386,-0.47085c0.18473,-1.47932 1.2704,-1.80587 1.67962,-1.75335c0.40889,0.05169 0.73759,0.54226 0.73759,0.54226c0,0 0.87626,0.92447 0.65425,1.93973c-0.22201,1.01543 -1.31961,1.46772 -1.31961,1.46772c0,0 -0.88405,0.1723 -1.03017,0.06826" fill="#2e374a" fill-rule="nonzero" stroke="none" stroke-width="1"/><path d="M486.59699,242.90529c0.09245,-1.0928 1.22136,-2.08222 2.95997,-1.97817c2.31234,0.25995 2.67235,1.89997 2.66407,2.55042c-0.01011,0.78795 -0.16402,1.92648 -2.80953,1.92648c-2.25965,0 -2.89734,-1.51676 -2.8145,-2.49873z" fill="none" fill-rule="evenodd" stroke="#2e374a" stroke-width="0.5"/></g><g stroke-linecap="butt"><path d="M511.41807,242.66423c0.083,0.98196 -0.55468,2.49873 -2.81434,2.49873c-2.64568,0 -2.79959,-1.13853 -2.80953,-1.92648c-0.00828,-0.65061 0.35156,-2.29047 2.6639,-2.55042c1.73877,-0.10404 2.86769,0.88537 2.95997,1.97817" fill="#e2e3e4" fill-rule="nonzero" stroke="none" stroke-width="1"/><path d="M508.95364,245.12966c-0.14613,0.10404 -1.03017,-0.06826 -1.03017,-0.06826c0,0 -1.0976,-0.4523 -1.31961,-1.46772c-0.22201,-1.01526 0.65425,-1.93973 0.65425,-1.93973c0,0 0.32854,-0.49057 0.73759,-0.54226c0.40922,-0.05252 1.49473,0.27403 1.67962,1.75335c0.18456,1.48413 -0.72168,2.26462 -0.72168,2.26462" fill="#2e374a" fill-rule="nonzero" stroke="none" stroke-width="1"/><path d="M511.41807,242.73498c0.083,0.98196 -0.55468,2.49873 -2.81434,2.49873c-2.64568,0 -2.79959,-1.13853 -2.80953,-1.92648c-0.00828,-0.65044 0.35156,-2.29047 2.6639,-2.55042c1.73877,-0.10404 2.86769,0.88537 2.95997,1.97817z" fill="none" fill-rule="evenodd" stroke="#2e374a" stroke-width="0.5"/></g><path d="M522.66631,386.07153c-5.40568,0 -10.64153,-6.31524 -22.61129,-6.46517c-10.87017,-0.13619 -16.3615,6.16497 -22.381,6.14194c-30.04285,-50.00913 -0.05683,-113.18966 -0.13155,-113.20424c4.65566,-3.98252 9.95812,-8.11713 21.44129,-9.52372c13.06123,1.54592 20.61987,8.98196 22.45738,10.39832c0.18075,-0.05633 28.34285,54.42224 1.22517,112.65287z" fill="#fbf8ea" fill-rule="nonzero" stroke="#d1c1b5" stroke-width="0.5" stroke-linecap="butt"/><path d="M525.65974,283.81765c0,0 15.27963,35.59432 16.09426,65.73791" fill="none" fill-rule="nonzero" stroke="#3e5766" stroke-width="1" stroke-linecap="round"/><path d="M457.246,349.3188c0.81479,-30.14358 15.83398,-65.73791 15.83398,-65.73791" fill="none" fill-rule="nonzero" stroke="#3e5766" stroke-width="1" stroke-linecap="round"/><path d="M526.7204,386.62389c0,-0.07406 -13.08625,-0.35024 -13.08625,0c0,-2.13507 2.92948,-3.86588 6.54304,-3.86588c3.61372,0 6.54321,1.73082 6.54321,3.86588z" fill="#e3a066" fill-rule="nonzero" stroke="#8d6a4a" stroke-width="0.5" stroke-linecap="butt"/><path d="M478.48218,382.75801c3.61372,0 6.54321,1.73082 6.54321,3.86588c0,-0.35007 -13.08641,-0.07406 -13.08641,0c0,-2.13507 2.92948,-3.86588 6.54321,-3.86588z" fill="#e3a066" fill-rule="nonzero" stroke="#8d6a4a" stroke-width="0.5" stroke-linecap="butt"/><path d="M498.65277,264.08844c-12.23817,0 -21.27555,7.85185 -21.27555,7.85185c0,0 14.45735,-12.58546 21.39389,-12.58546c6.10816,0.16568 22.34457,13.0943 22.34457,13.0943c0,0 -11.59579,-8.36069 -22.46291,-8.36069z" fill="#f0c579" fill-rule="nonzero" stroke="none" stroke-width="0" stroke-linecap="butt"/><path d="M501.07111,249.02089l0.6627,-1.32541" fill="none" fill-rule="nonzero" stroke="#8d6a4a" stroke-width="0.5" stroke-linecap="round"/><path d="M496.70836,249.02089l-0.6627,-1.32541" fill="none" fill-rule="nonzero" stroke="#8d6a4a" stroke-width="0.5" stroke-linecap="round"/><path d="M496.01981,245.28937c3.00834,-3.54563 3.62963,-1.76611 5.714,0" fill="none" fill-rule="nonzero" stroke="#8d6a4a" stroke-width="0.5" stroke-linecap="round"/></g></g></svg>