<svg version="1.1" xmlns="http://www.w3.org/2000/svg" xmlns:xlink="http://www.w3.org/1999/xlink" width="191.99999" height="220.75" viewBox="0,0,191.99999,220.75"><g transform="translate(-28.5,-123.25)"><g stroke="none" stroke-miterlimit="10"><path d="M220.49999,339.68656c0,1.82996 -0.96249,3.31343 -2.14978,3.31343h-117.70044c-1.18729,0 -2.14978,-1.48347 -2.14978,-3.31343v-104.37313c0,-1.82996 0.96249,-3.31343 2.14978,-3.31343h117.70044c1.18729,0 2.14978,1.48347 2.14978,3.31343z" fill="#131313" stroke-width="NaN"/><path d="M31.60447,344c-1.71456,0 -3.10447,-1.5384 -3.10447,-3.43612v-188.12775c0,-1.89772 1.38992,-3.43612 3.10447,-3.43612h97.79103c1.71456,0 3.10447,1.5384 3.10447,3.43612v188.12775c0,1.89772 -1.38992,3.43612 -3.10447,3.43612z" fill="#131313" stroke-width="NaN"/><text transform="translate(39.5,141) scale(0.5,0.5)" font-size="40" xml:space="preserve" fill="#ffffff" stroke-width="1" font-family="&quot;vcr&quot;, Sans Serif" font-weight="normal" text-anchor="start"><tspan x="0" dy="0">Options</tspan></text></g></g></svg>